<?xml version="1.0" standalone="no"?>
<!DOCTYPE svg PUBLIC "-//W3C//DTD SVG 20010904//EN"
 "http://www.w3.org/TR/2001/REC-SVG-20010904/DTD/svg10.dtd">
<svg version="1.0" xmlns="http://www.w3.org/2000/svg"
 width="700.000000pt" height="700.000000pt" viewBox="0 0 700.000000 700.000000"
 preserveAspectRatio="xMidYMid meet">
<metadata>
Created by potrace 1.14, written by Peter Selinger 2001-2017
</metadata>
<g transform="translate(0.000000,700.000000) scale(0.100000,-0.100000)"
fill="#000000" stroke="none">
<path d="M1744 6959 c-31 -43 -83 -111 -112 -145 -10 -12 -44 -29 -75 -38 -44
-13 -60 -23 -72 -46 -8 -16 -23 -31 -34 -35 -23 -7 -66 -63 -122 -158 -23 -38
-59 -87 -81 -110 -42 -43 -68 -91 -68 -126 0 -11 -10 -32 -23 -48 -33 -40 -87
-137 -87 -157 0 -9 7 -16 15 -16 9 0 20 -11 25 -25 10 -26 29 -32 46 -16 5 5
20 11 34 13 19 2 25 -1 24 -14 -4 -87 -3 -85 -35 -98 -27 -11 -30 -17 -25 -42
4 -20 2 -28 -9 -28 -23 0 -26 -16 -9 -56 9 -22 13 -36 8 -32 -4 5 -13 -1 -21
-11 -11 -16 -19 -18 -43 -11 -33 10 -48 -3 -30 -25 7 -9 8 -15 0 -20 -16 -10
-32 5 -27 26 6 22 3 23 -24 8 -11 -6 -18 -16 -16 -23 3 -7 2 -17 -1 -22 -12
-17 -62 -45 -71 -39 -17 10 9 89 36 111 22 19 25 27 19 59 -6 31 -9 35 -23 24
-43 -36 -156 -324 -178 -454 -9 -50 -41 -172 -55 -210 -6 -15 -9 -30 -6 -32 2
-3 -2 -21 -10 -40 -9 -19 -19 -67 -24 -107 -15 -116 -30 -186 -46 -224 -22
-53 -65 -267 -80 -396 -6 -53 -5 -59 10 -53 10 4 18 7 19 7 1 0 1 19 -1 43 -3
53 15 88 53 100 17 6 33 15 38 21 5 8 10 6 17 -4 14 -22 13 42 -2 92 -9 31 -9
44 1 60 7 11 8 17 3 14 -6 -3 -12 1 -16 9 -8 21 15 31 26 11 9 -16 12 -16 34
5 13 12 24 32 24 43 0 29 26 100 37 103 6 2 13 -82 17 -208 3 -116 11 -241 17
-278 24 -157 66 -378 74 -392 3 -5 10 -64 16 -131 9 -109 12 -125 32 -140 18
-14 19 -18 5 -18 -25 0 -32 -17 -39 -90 -7 -72 -40 -249 -70 -380 -11 -46 -23
-107 -26 -135 -6 -47 -55 -187 -74 -211 -5 -6 -24 -51 -43 -100 -75 -197 -137
-338 -189 -431 -106 -192 -199 -379 -234 -473 -64 -172 -103 -310 -109 -383
-6 -87 5 -75 35 38 12 44 37 119 56 166 19 48 35 91 35 97 0 5 6 15 14 21 29
24 36 -22 36 -216 0 -175 7 -253 42 -493 6 -41 11 -102 12 -135 1 -39 7 -68
18 -85 25 -35 22 -64 -10 -102 -54 -62 -74 -115 -67 -172 5 -39 1 -75 -19
-146 -41 -154 -55 -294 -40 -404 l7 -46 2261 0 2261 0 43 123 c41 115 168 384
265 562 24 44 65 121 92 170 174 325 349 576 478 687 80 69 103 86 93 71 -12
-21 0 -15 46 23 23 21 64 46 90 57 31 13 45 24 41 33 -3 8 -1 14 5 14 6 0 12
-5 14 -11 3 -9 14 -9 42 1 38 12 54 12 211 -8 33 -5 75 -16 93 -25 17 -10 32
-15 32 -12 0 2 -17 13 -37 24 -21 11 -57 38 -81 61 l-44 41 -76 -4 c-74 -3
-351 -43 -382 -54 -20 -7 -54 -10 -195 -18 -105 -5 -127 -10 -180 -36 -33 -16
-87 -35 -120 -41 l-60 -13 43 -3 43 -3 -92 -97 c-85 -90 -160 -180 -301 -363
-61 -80 -177 -197 -273 -277 -33 -27 -85 -73 -115 -102 -181 -171 -508 -375
-685 -425 -33 -10 -85 -26 -115 -36 -56 -18 -141 -38 -195 -45 -16 -2 -74 -11
-128 -19 -128 -20 -399 -38 -462 -30 -153 19 -317 105 -441 231 -68 69 -141
198 -164 290 -13 51 -13 51 30 130 57 106 70 124 86 124 8 0 14 5 14 11 0 5
-5 7 -11 3 -7 -4 -6 2 2 17 12 23 12 23 20 4 8 -20 8 -20 8 0 1 17 3 17 11 5
8 -13 10 -13 10 2 0 9 7 21 16 26 11 6 13 11 5 16 -6 4 -11 2 -11 -3 0 -6 -5
-11 -11 -11 -8 0 -7 5 1 15 7 9 15 14 17 11 2 -2 32 9 66 24 34 15 89 36 122
45 171 49 359 212 460 400 21 39 40 73 44 77 3 4 30 -8 60 -27 147 -93 411
-78 718 41 122 47 365 172 495 256 43 27 82 47 87 44 5 -3 14 1 21 9 18 22 37
18 44 -9 3 -13 23 -53 43 -89 29 -51 53 -76 110 -118 93 -68 205 -123 174 -85
-10 12 -6 16 21 21 53 12 187 83 265 142 39 30 108 91 153 136 103 104 251
317 220 317 -5 0 -10 5 -10 10 0 6 7 10 15 8 20 -4 74 112 130 277 39 116 42
121 83 144 49 26 50 35 4 22 -27 -8 -32 -7 -32 8 0 26 23 42 158 111 67 34
122 66 122 71 0 5 13 6 30 3 26 -6 39 3 139 96 99 92 184 190 165 190 -3 0
-24 -16 -45 -35 -47 -42 -61 -44 -54 -7 4 18 -4 9 -25 -28 -19 -35 -48 -67
-78 -88 -26 -18 -67 -48 -91 -65 -104 -76 -145 -78 -73 -4 63 66 222 270 228
293 8 32 94 122 94 98 0 -35 18 1 40 81 12 44 37 132 57 195 37 122 53 179 79
275 19 71 30 61 45 -40 12 -77 -10 -290 -42 -404 -33 -121 -23 -128 42 -29 51
79 78 155 91 253 6 44 11 271 13 505 1 285 7 509 19 680 23 317 18 750 -9 870
-30 133 -76 239 -174 394 -83 131 -100 166 -136 280 -43 133 -104 257 -211
427 -30 47 -54 91 -54 98 0 8 -287 11 -1120 11 -1022 0 -1119 -1 -1113 -16 4
-12 1 -15 -13 -12 -10 2 -18 9 -17 16 2 9 -178 12 -737 11 -407 0 -747 -2
-755 -5 -8 -4 -15 -12 -15 -20 0 -17 -60 -8 -76 12 -15 19 -62 18 -80 -1 -9
-8 -20 -15 -26 -15 -6 0 -6 6 2 15 10 13 9 15 -8 15 -14 0 -20 -5 -16 -13 3
-8 -2 -14 -10 -14 -8 0 -14 5 -13 11 1 6 -5 11 -13 11 -10 0 -15 -11 -15 -35
-1 -34 -14 -45 -40 -31 -5 3 -16 6 -24 8 -27 4 -41 43 -16 43 8 0 15 5 15 10
0 6 -12 10 -26 10 -16 0 -23 -4 -18 -11 5 -8 -1 -10 -18 -6 -28 7 -48 -17 -22
-27 16 -6 19 -36 3 -36 -5 0 -7 -4 -4 -10 4 -6 -6 -10 -22 -11 l-28 0 24 -10
c19 -7 22 -12 13 -21 -16 -16 -50 -20 -72 -8 -12 7 -27 7 -44 0 -34 -13 -35 8
-2 47 31 36 86 69 86 52 0 -9 3 -10 10 -3 6 6 8 18 4 27 -5 13 -19 17 -63 17
-55 0 -58 -1 -87 -41z m976 21 c0 -5 -4 -10 -10 -10 -5 0 -10 5 -10 10 0 6 5
10 10 10 6 0 10 -4 10 -10z m811 -13 c-13 -13 -26 -3 -16 12 3 6 11 8 17 5 6
-4 6 -10 -1 -17z m-1177 -2 c3 -8 1 -15 -4 -15 -6 0 -10 7 -10 15 0 8 2 15 4
15 2 0 6 -7 10 -15z m-379 -5 c3 -5 1 -10 -4 -10 -6 0 -11 5 -11 10 0 6 2 10
4 10 3 0 8 -4 11 -10z m145 -7 c-1 -16 -30 -46 -37 -39 -4 4 -1 11 7 16 8 6
11 10 7 10 -11 0 2 20 14 20 5 0 9 -3 9 -7z m-121 -22 c9 -6 10 -11 2 -15 -16
-11 -13 -46 4 -46 8 0 15 -7 15 -16 0 -9 -5 -12 -12 -8 -8 5 -9 2 -5 -10 6
-14 3 -17 -10 -12 -9 4 -20 2 -23 -5 -5 -8 -10 -8 -14 -1 -4 6 2 16 13 21 20
11 19 51 -3 51 -6 0 -4 5 4 10 10 6 11 10 3 10 -7 0 -13 7 -13 15 0 17 18 19
39 6z m1261 5 c0 -3 -4 -8 -10 -11 -5 -3 -10 -1 -10 4 0 6 5 11 10 11 6 0 10
-2 10 -4z m-950 -16 c0 -5 -2 -10 -4 -10 -3 0 -8 5 -11 10 -3 6 -1 10 4 10 6
0 11 -4 11 -10z m2835 -20 c-5 -8 -11 -8 -17 -2 -6 6 -7 16 -3 22 5 8 11 8 17
2 6 -6 7 -16 3 -22z m-2927 -1 c12 -7 22 -16 22 -21 0 -5 -11 -1 -25 8 -13 8
-29 13 -34 10 -5 -4 -12 -2 -16 4 -4 6 -11 7 -17 4 -6 -4 -8 -2 -4 4 7 12 40
8 74 -9z m13 -41 c23 -26 23 -28 3 -28 -8 0 -13 4 -9 9 3 6 -4 9 -15 8 -11 -1
-20 -5 -20 -9 0 -4 -4 -8 -10 -8 -14 0 -12 37 3 43 22 9 29 7 48 -15z m99 12
c0 -5 -4 -10 -10 -10 -5 0 -10 5 -10 10 0 6 5 10 10 10 6 0 10 -4 10 -10z
m-196 -16 c9 -23 7 -34 -5 -34 -6 0 -9 6 -6 14 4 10 0 12 -16 8 -19 -5 -19 -4
-6 11 18 21 25 21 33 1z m266 -4 c0 -5 -4 -10 -10 -10 -5 0 -10 5 -10 10 0 6
5 10 10 10 6 0 10 -4 10 -10z m1050 -6 c0 -9 -5 -14 -12 -12 -18 6 -21 28 -4
28 9 0 16 -7 16 -16z m828 -12 c2 -7 -5 -12 -17 -12 -14 0 -19 5 -14 15 6 17
25 15 31 -3z m-2523 -1 c3 -5 1 -12 -5 -16 -5 -3 -10 1 -10 9 0 18 6 21 15 7z
m310 -41 c0 -34 -10 -40 -18 -11 -2 11 -13 21 -23 24 -12 3 -10 3 4 2 12 -1
25 2 28 6 8 14 9 11 9 -21z m1125 26 c0 -3 -4 -8 -10 -11 -5 -3 -10 -1 -10 4
0 6 5 11 10 11 6 0 10 -2 10 -4z m-720 -16 c0 -5 -4 -10 -10 -10 -5 0 -10 5
-10 10 0 6 5 10 10 10 6 0 10 -4 10 -10z m-334 -42 c-3 -24 -5 -44 -5 -45 -1
-1 -8 0 -17 4 -11 4 -12 9 -5 16 6 6 11 24 11 39 0 15 5 28 11 28 7 0 9 -15 5
-42z m-407 -5 c9 -6 12 -15 8 -19 -4 -5 -12 -2 -17 6 -8 13 -10 13 -10 -1 0
-23 11 -30 27 -18 20 18 46 -8 38 -39 -5 -19 -3 -23 8 -19 11 4 13 0 10 -14
-4 -14 -11 -18 -24 -14 -14 5 -19 1 -20 -12 0 -16 -1 -16 -9 2 -5 11 -9 14 -9
8 -2 -23 -20 -14 -27 13 -4 16 -11 23 -21 20 -11 -5 -13 -1 -7 17 4 12 7 35 6
52 -1 34 19 67 27 44 2 -8 11 -19 20 -26z m226 27 c3 -5 1 -10 -4 -10 -6 0
-11 5 -11 10 0 6 2 10 4 10 3 0 8 -4 11 -10z m305 -10 c0 -5 -4 -10 -10 -10
-5 0 -10 5 -10 10 0 6 5 10 10 10 6 0 10 -4 10 -10z m1300 0 c0 -5 -4 -10 -10
-10 -5 0 -10 5 -10 10 0 6 5 10 10 10 6 0 10 -4 10 -10z m-90 -10 c0 -5 -4
-10 -10 -10 -5 0 -10 5 -10 10 0 6 5 10 10 10 6 0 10 -4 10 -10z m-1080 -4 c0
-3 -4 -8 -10 -11 -5 -3 -10 -1 -10 4 0 6 5 11 10 11 6 0 10 -2 10 -4z m-592
-26 c14 0 15 -2 2 -9 -18 -12 -30 -5 -29 17 0 11 3 12 6 5 2 -7 12 -13 21 -13z
m133 3 c13 -16 12 -17 -3 -4 -10 7 -18 15 -18 17 0 8 8 3 21 -13z m136 5 c4
-7 8 -26 9 -41 2 -16 7 -34 13 -41 6 -8 9 -21 5 -30 -5 -12 0 -16 19 -16 40 0
47 -19 26 -70 -11 -25 -22 -53 -25 -62 -4 -10 -10 -18 -15 -18 -4 0 -11 -17
-15 -37 -11 -59 -53 -133 -76 -133 -4 0 -8 29 -8 65 0 59 -2 67 -22 74 -13 5
-30 6 -38 4 -13 -4 -13 -3 -1 5 13 9 11 16 -11 49 -32 49 -30 91 8 140 16 21
28 41 26 46 -1 4 5 7 13 7 8 0 15 3 15 8 0 13 45 62 57 62 6 0 15 -6 20 -12z
m1303 2 c0 -5 -4 -10 -10 -10 -5 0 -10 5 -10 10 0 6 5 10 10 10 6 0 10 -4 10
-10z m-1037 -25 c-3 -9 -8 -14 -10 -11 -3 3 -2 9 2 15 9 16 15 13 8 -4z m322
6 c3 -5 1 -12 -5 -16 -5 -3 -10 1 -10 9 0 18 6 21 15 7z m-455 -27 c0 -8 5
-12 10 -9 6 3 1 -10 -11 -29 -23 -40 -27 -42 -53 -23 -20 15 -11 51 10 43 9
-3 14 1 14 13 0 10 3 21 6 24 10 10 24 -2 24 -19z m330 16 c0 -5 -4 -10 -9
-10 -6 0 -13 5 -16 10 -3 6 1 10 9 10 9 0 16 -4 16 -10z m-565 -10 c3 -5 1
-10 -4 -10 -6 0 -11 5 -11 10 0 6 2 10 4 10 3 0 8 -4 11 -10z m339 1 c3 -5 -1
-14 -9 -21 -13 -10 -15 -9 -15 9 0 21 14 28 24 12z m-473 -30 c7 11 9 11 9 1
0 -7 4 -11 9 -8 5 3 14 -1 20 -8 10 -11 8 -16 -8 -21 -23 -7 -27 -20 -10 -31
8 -4 7 -9 -2 -15 -11 -7 -10 -9 4 -9 9 0 17 6 18 13 0 6 5 1 10 -12 12 -30 5
-38 -18 -20 -16 13 -17 12 -4 -4 8 -9 11 -21 7 -24 -4 -4 -10 -3 -14 2 -26 37
-77 42 -65 7 6 -15 4 -15 -14 1 -11 9 -23 14 -26 10 -4 -3 -7 -1 -7 6 0 7 6
11 14 8 8 -3 16 2 19 14 3 11 14 19 25 19 17 0 19 6 16 48 -2 26 -1 38 2 28 5
-15 8 -16 15 -5z m589 9 c0 -5 -4 -10 -10 -10 -5 0 -10 5 -10 10 0 6 5 10 10
10 6 0 10 -4 10 -10z m1370 0 c0 -5 -4 -10 -10 -10 -5 0 -10 5 -10 10 0 6 5
10 10 10 6 0 10 -4 10 -10z m-2133 -22 c-3 -8 -6 -5 -6 6 -1 11 2 17 5 13 3
-3 4 -12 1 -19z m1953 12 c0 -5 -4 -10 -10 -10 -5 0 -10 5 -10 10 0 6 5 10 10
10 6 0 10 -4 10 -10z m-1340 -16 c0 -8 -5 -12 -10 -9 -6 4 -8 11 -5 16 9 14
15 11 15 -7z m220 12 c0 -3 -4 -8 -10 -11 -5 -3 -10 -1 -10 4 0 6 5 11 10 11
6 0 10 -2 10 -4z m-170 -27 c0 -14 -17 -10 -23 5 -4 10 -1 13 9 9 7 -3 14 -9
14 -14z m270 11 c0 -5 -4 -10 -10 -10 -5 0 -10 5 -10 10 0 6 5 10 10 10 6 0
10 -4 10 -10z m60 0 c0 -5 -2 -10 -4 -10 -3 0 -8 5 -11 10 -3 6 -1 10 4 10 6
0 11 -4 11 -10z m2540 -5 c0 -8 -4 -15 -9 -15 -13 0 -22 16 -14 24 11 11 23 6
23 -9z m-2955 -5 c-3 -5 -1 -10 4 -10 6 0 11 -4 11 -9 0 -13 -25 -20 -40 -11
-11 7 -11 11 -1 24 15 17 36 22 26 6z m1005 -30 c0 -5 -4 -10 -10 -10 -5 0
-10 5 -10 10 0 6 5 10 10 10 6 0 10 -4 10 -10z m60 0 c0 -5 -4 -10 -10 -10 -5
0 -10 5 -10 10 0 6 5 10 10 10 6 0 10 -4 10 -10z m155 -30 c3 -5 1 -10 -4 -10
-6 0 -11 5 -11 10 0 6 2 10 4 10 3 0 8 -4 11 -10z m210 0 c3 -5 1 -10 -4 -10
-6 0 -11 5 -11 10 0 6 2 10 4 10 3 0 8 -4 11 -10z m145 -1 c0 -5 5 -7 10 -4 6
3 10 1 10 -4 0 -13 -3 -13 -24 -5 -18 7 -22 24 -6 24 6 0 10 -5 10 -11z m1660
1 c0 -5 -5 -10 -11 -10 -5 0 -7 5 -4 10 3 6 8 10 11 10 2 0 4 -4 4 -10z
m-3858 -7 c-17 -7 -5 -23 18 -23 11 0 27 -12 36 -26 15 -22 15 -27 4 -34 -8
-5 -19 -5 -26 0 -6 6 -13 7 -17 4 -3 -3 -18 1 -34 10 -15 8 -22 15 -14 16 7 0
11 6 7 15 -8 22 4 45 23 44 10 0 11 -2 3 -6z m1558 -17 c0 -3 -4 -8 -10 -11
-5 -3 -10 -1 -10 4 0 6 5 11 10 11 6 0 10 -2 10 -4z m-1455 -26 c3 -5 1 -10
-4 -10 -6 0 -11 5 -11 10 0 6 2 10 4 10 3 0 8 -4 11 -10z m427 -52 c-8 -8 -9
-4 -5 13 4 13 8 18 11 10 2 -7 -1 -18 -6 -23z m1638 2 c0 -5 -2 -10 -4 -10 -3
0 -8 5 -11 10 -3 6 -1 10 4 10 6 0 11 -4 11 -10z m-620 -10 c0 -5 -8 -10 -17
-10 -15 0 -16 2 -3 10 19 12 20 12 20 0z m2410 -10 c0 -5 -4 -10 -10 -10 -5 0
-10 5 -10 10 0 6 5 10 10 10 6 0 10 -4 10 -10z m-4192 -26 c2 -11 -5 -31 -16
-44 -15 -19 -22 -21 -40 -11 -23 12 -21 32 6 64 20 23 46 18 50 -9z m852 16
c0 -5 -4 -10 -10 -10 -5 0 -10 5 -10 10 0 6 5 10 10 10 6 0 10 -4 10 -10z
m-725 -10 c3 -5 2 -10 -4 -10 -5 0 -13 5 -16 10 -3 6 -2 10 4 10 5 0 13 -4 16
-10z m2315 6 c0 -3 -4 -8 -10 -11 -5 -3 -10 -1 -10 4 0 6 5 11 10 11 6 0 10
-2 10 -4z m2100 -26 c0 -5 -4 -10 -10 -10 -5 0 -10 5 -10 10 0 6 5 10 10 10 6
0 10 -4 10 -10z m-1600 -26 c0 -9 -5 -14 -12 -12 -18 6 -21 28 -4 28 9 0 16
-7 16 -16z m-2600 -4 c0 -5 -4 -10 -9 -10 -6 0 -13 5 -16 10 -3 6 1 10 9 10 9
0 16 -4 16 -10z m3860 6 c0 -3 -4 -8 -10 -11 -5 -3 -10 -1 -10 4 0 6 5 11 10
11 6 0 10 -2 10 -4z m-3590 -24 c0 -5 -9 -19 -19 -31 -23 -26 -38 -11 -19 19
13 20 38 28 38 12z m3710 -7 c0 -8 -6 -15 -14 -15 -17 0 -28 14 -19 24 12 12
33 6 33 -9z m-2820 -5 c0 -5 -4 -10 -9 -10 -6 0 -13 5 -16 10 -3 6 1 10 9 10
9 0 16 -4 16 -10z m1080 -14 c0 -3 -4 -8 -10 -11 -5 -3 -10 -1 -10 4 0 6 5 11
10 11 6 0 10 -2 10 -4z m-2695 -45 c-3 -6 -14 -11 -23 -11 -15 1 -15 2 2 15
21 16 32 13 21 -4z m3810 -1 c3 -6 -1 -13 -10 -16 -19 -8 -30 0 -20 15 8 14
22 14 30 1z m-3625 -33 c18 -21 20 -26 7 -21 -10 3 -17 1 -17 -6 0 -6 -4 -8
-10 -5 -6 3 -7 -1 -4 -9 3 -9 1 -16 -4 -16 -6 0 -14 9 -17 20 -3 11 -14 21
-23 21 -15 1 -15 2 1 6 9 2 15 9 12 14 -4 5 1 9 9 9 9 0 16 5 16 12 0 6 1 9 3
7 1 -2 13 -17 27 -32z m150 13 c0 -5 -5 -10 -11 -10 -5 0 -7 5 -4 10 3 6 8 10
11 10 2 0 4 -4 4 -10z m-300 -14 c0 -21 -21 -31 -30 -15 -5 7 -6 17 -4 21 9
14 34 9 34 -6z m865 4 c-3 -5 -10 -10 -16 -10 -5 0 -9 5 -9 10 0 6 7 10 16 10
8 0 12 -4 9 -10z m307 -117 c-37 -316 -50 -676 -33 -898 6 -82 14 -162 18
-177 l5 -28 -151 0 -151 0 -2 28 c-1 32 -1 31 7 141 4 47 17 131 30 185 13 55
22 103 19 107 -3 5 4 28 14 51 11 24 27 70 37 103 9 33 28 94 41 136 14 43 27
83 28 90 2 8 9 28 16 44 7 17 14 37 16 46 2 8 22 60 45 115 22 54 46 113 52
131 18 51 21 30 9 -74z m-1232 68 c5 -11 10 -27 10 -35 0 -16 -65 -86 -80 -86
-4 0 -15 -3 -24 -6 -26 -10 -19 29 10 62 14 16 30 41 36 57 12 32 33 35 48 8z
m150 9 c0 -5 -2 -10 -4 -10 -3 0 -8 5 -11 10 -3 6 -1 10 4 10 6 0 11 -4 11
-10z m4708 -18 c2 -7 -6 -12 -17 -12 -21 0 -27 11 -14 24 9 9 26 2 31 -12z
m-2263 -42 c3 -5 1 -10 -4 -10 -6 0 -11 5 -11 10 0 6 2 10 4 10 3 0 8 -4 11
-10z m-2240 -20 c3 -5 1 -10 -4 -10 -6 0 -11 5 -11 10 0 6 2 10 4 10 3 0 8 -4
11 -10z m1155 -15 c0 -8 -7 -15 -15 -15 -8 0 -15 7 -15 15 0 8 7 15 15 15 8 0
15 -7 15 -15z m-850 -25 c0 -5 -4 -10 -10 -10 -5 0 -10 5 -10 10 0 6 5 10 10
10 6 0 10 -4 10 -10z m-330 -30 c0 -5 -4 -10 -10 -10 -5 0 -10 5 -10 10 0 6 5
10 10 10 6 0 10 -4 10 -10z m48 -13 c2 -10 -3 -17 -12 -17 -10 0 -16 9 -16 21
0 24 23 21 28 -4z m4067 14 c7 -12 -12 -24 -25 -16 -11 7 -4 25 10 25 5 0 11
-4 15 -9z m-4231 -87 c8 -21 -13 -49 -27 -35 -7 7 -17 7 -30 0 -14 -8 -18 -8
-13 0 4 6 3 11 -3 11 -15 0 -26 -23 -13 -28 13 -4 17 -41 5 -43 -5 0 -20 -3
-35 -5 -18 -3 -34 2 -47 15 -11 11 -27 17 -39 14 -25 -6 -35 19 -17 43 11 16
17 16 39 6 24 -11 85 -6 96 7 7 9 53 29 66 30 7 1 15 -6 18 -15z m201 6 c3 -5
1 -10 -4 -10 -6 0 -11 5 -11 10 0 6 2 10 4 10 3 0 8 -4 11 -10z m65 -4 c0 -8
-5 -18 -11 -22 -14 -8 -33 11 -25 25 10 16 36 13 36 -3z m1017 -33 c-1 -16 -6
-31 -11 -35 -5 -3 8 -22 29 -42 29 -28 34 -37 22 -42 -9 -3 -18 -24 -22 -54
-7 -52 -32 -84 -58 -74 -9 3 -28 22 -43 41 -23 30 -25 38 -15 60 7 14 10 28 7
30 -6 6 41 101 62 126 21 24 30 21 29 -10z m-1257 -33 c0 -11 -7 -20 -15 -20
-8 0 -15 9 -15 20 0 11 7 20 15 20 8 0 15 -9 15 -20z m-246 -69 c-6 -6 -24 19
-24 34 1 6 7 1 15 -9 8 -11 12 -22 9 -25z m216 35 c0 -3 -4 -8 -10 -11 -5 -3
-10 -1 -10 4 0 6 5 11 10 11 6 0 10 -2 10 -4z m2160 -34 c0 -15 -2 -15 -10 -2
-13 20 -13 33 0 25 6 -3 10 -14 10 -23z m-2257 11 c4 9 6 9 6 0 1 -6 -3 -14
-8 -17 -12 -8 -41 3 -41 15 0 6 8 5 19 -1 14 -7 21 -6 24 3z m80 -32 c26 -10
38 -31 17 -31 -5 0 -7 -7 -4 -15 4 -8 1 -15 -5 -15 -6 0 -11 9 -11 21 0 11 -4
17 -10 14 -5 -3 -10 1 -10 9 0 8 -5 18 -12 22 -6 4 -8 3 -5 -4 11 -16 -3 -41
-19 -35 -8 3 -14 10 -14 15 0 6 7 7 16 4 12 -4 15 -2 10 9 -21 52 -21 51 0 33
10 -9 31 -21 47 -27z m91 4 c-4 -8 -11 -15 -16 -15 -6 0 -5 6 2 15 7 8 14 15
16 15 2 0 1 -7 -2 -15z m-234 -37 c0 -19 -6 -23 -30 -24 -17 -1 -30 3 -30 8 0
5 4 7 9 3 5 -3 12 -1 16 5 4 6 11 8 16 5 5 -4 9 1 9 9 0 9 2 16 5 16 3 0 5
-10 5 -22z m22 0 c-7 -7 -12 -8 -12 -2 0 14 12 26 19 19 2 -3 -1 -11 -7 -17z
m294 1 c10 -17 -13 -36 -27 -22 -12 12 -4 33 11 33 5 0 12 -5 16 -11z m-76 -9
c0 -5 -2 -10 -4 -10 -3 0 -8 5 -11 10 -3 6 -1 10 4 10 6 0 11 -4 11 -10z m-44
-8 c8 -5 6 -12 -5 -24 -16 -16 -17 -15 -19 8 -2 25 5 29 24 16z m-158 -57 c0
-17 -1 -17 -5 -2 -2 9 -9 14 -15 11 -7 -4 -8 -2 -4 4 4 7 2 12 -4 12 -7 0 -6
5 2 14 11 12 14 11 20 -3 4 -9 6 -25 6 -36z m66 40 c-6 -16 -24 -21 -24 -7 0
11 11 22 21 22 5 0 6 -7 3 -15z m2876 -1 c0 -9 -5 -14 -12 -12 -18 6 -21 28
-4 28 9 0 16 -7 16 -16z m-2910 2 c0 -2 -7 -6 -15 -10 -8 -3 -15 -1 -15 4 0 6
7 10 15 10 8 0 15 -2 15 -4z m90 -22 c0 -2 -9 -4 -21 -4 -11 0 -18 4 -14 10 5
8 35 3 35 -6z m2090 -4 c0 -22 -24 -27 -36 -8 -5 8 -2 9 9 5 11 -4 17 -1 17 8
0 8 2 15 5 15 3 0 5 -9 5 -20z m120 7 c0 -7 -10 -24 -22 -37 -13 -14 -22 -28
-20 -32 1 -5 -4 -8 -10 -8 -7 0 -13 11 -13 24 0 13 5 22 11 19 6 -2 19 7 28
21 18 29 26 32 26 13z m-2519 -20 c-13 -13 -26 -3 -16 12 3 6 11 8 17 5 6 -4
6 -10 -1 -17z m2074 13 c3 -6 -1 -13 -10 -16 -19 -8 -30 0 -20 15 8 14 22 14
30 1z m252 -4 c2 -1 4 -11 6 -22 4 -30 16 -44 38 -44 10 0 19 -4 19 -10 0 -22
-47 -10 -58 15 -7 14 -28 35 -47 46 -19 12 -35 23 -35 25 0 4 71 -6 77 -10z
m-2092 -5 c-3 -5 0 -13 7 -17 8 -5 6 -10 -8 -14 -24 -9 -41 -1 -23 11 12 8 11
11 -1 19 -12 8 -11 10 8 10 13 0 21 -4 17 -9z m-192 -33 c-8 -46 -21 -69 -19
-32 3 28 15 64 22 64 2 0 1 -15 -3 -32z m34 1 c0 -21 -3 -26 -9 -16 -4 9 -5
22 -2 31 9 23 11 20 11 -15z m238 21 c3 -6 -1 -7 -9 -4 -18 7 -21 14 -7 14 6
0 13 -4 16 -10z m1175 6 c0 -3 -4 -8 -10 -11 -5 -3 -10 -1 -10 4 0 6 5 11 10
11 6 0 10 -2 10 -4z m-1510 -30 c14 -18 13 -19 -2 -13 -10 3 -18 2 -18 -4 0
-5 7 -12 15 -15 8 -4 15 -10 15 -16 0 -5 -4 -6 -10 -3 -5 3 -10 1 -10 -4 0 -6
-5 -11 -12 -11 -6 0 -9 3 -5 6 3 3 1 19 -5 36 -8 23 -8 32 3 39 7 4 14 7 14 6
0 -1 7 -11 15 -21z m370 14 c0 -5 -4 -10 -10 -10 -5 0 -10 5 -10 10 0 6 5 10
10 10 6 0 10 -4 10 -10z m-247 -20 c3 -11 1 -18 -4 -14 -5 3 -9 12 -9 20 0 20
7 17 13 -6z m1403 -7 c-10 -10 -19 5 -10 18 6 11 8 11 12 0 2 -7 1 -15 -2 -18z
m-415 -10 c-12 -20 -14 -14 -5 12 4 9 9 14 11 11 3 -2 0 -13 -6 -23z m524 17
c3 -5 1 -10 -4 -10 -6 0 -11 5 -11 10 0 6 2 10 4 10 3 0 8 -4 11 -10z m-558
-35 c-4 -8 -11 -15 -17 -15 -7 0 -7 6 0 21 13 23 26 19 17 -6z m1773 15 c0 -5
-4 -10 -10 -10 -5 0 -10 5 -10 10 0 6 5 10 10 10 6 0 10 -4 10 -10z m1450 6
c0 -3 -4 -8 -10 -11 -5 -3 -10 -1 -10 4 0 6 5 11 10 11 6 0 10 -2 10 -4z
m-4370 -26 c0 -5 -7 -10 -15 -10 -8 0 -15 5 -15 10 0 6 7 10 15 10 8 0 15 -4
15 -10z m1740 6 c0 -3 -4 -8 -10 -11 -5 -3 -10 -1 -10 4 0 6 5 11 10 11 6 0
10 -2 10 -4z m1130 -16 c0 -5 -7 -10 -16 -10 -8 0 -12 5 -9 10 3 6 10 10 16
10 5 0 9 -4 9 -10z m-275 -9 c-3 -5 -1 -12 5 -16 15 -9 12 -25 -5 -25 -8 0
-15 9 -15 19 0 11 -6 22 -12 24 -7 3 -3 6 10 6 13 1 21 -3 17 -8z m-1479 -10
c-3 -5 1 -14 9 -21 16 -13 21 -50 6 -50 -9 0 -22 23 -27 49 -3 15 3 31 12 31
3 0 3 -4 0 -9z m1394 -11 c0 -5 -2 -10 -4 -10 -3 0 -8 5 -11 10 -3 6 -1 10 4
10 6 0 11 -4 11 -10z m-2256 -9 c3 -5 -3 -11 -13 -14 -14 -3 -18 -1 -14 9 6
16 19 18 27 5z m2396 -26 c15 10 23 -44 9 -61 -10 -12 -14 -12 -20 -2 -7 10
-9 10 -9 1 0 -17 -18 -16 -35 1 -12 12 -12 15 1 20 8 3 24 1 34 -4 36 -19 41
-6 10 30 -11 12 -16 28 -13 34 5 7 9 5 11 -7 2 -9 8 -15 12 -12z m-82 -14 l12
-24 -23 22 c-13 11 -26 19 -29 15 -3 -3 -9 -1 -13 5 -4 7 3 10 18 9 14 -1 28
-12 35 -27z m1119 -13 c-3 -8 -6 -5 -6 6 -1 11 2 17 5 13 3 -3 4 -12 1 -19z
m-1387 -115 c27 -90 105 -284 161 -395 27 -54 49 -100 49 -102 0 -3 -10 -7
-22 -9 -20 -4 -20 -4 4 -6 23 -1 34 -13 69 -73 43 -74 75 -114 227 -284 81
-91 82 -94 57 -100 -36 -9 -22 -19 23 -15 29 2 43 -3 61 -23 14 -14 21 -29 17
-33 -12 -13 -123 -15 -145 -4 -28 15 -27 0 1 -18 21 -13 20 -15 -35 -43 -53
-26 -88 -68 -66 -76 5 -2 7 -8 3 -13 -7 -12 -4 -12 46 6 49 17 64 19 56 6 -4
-5 3 -7 14 -4 11 3 18 8 16 12 -2 3 10 7 27 7 17 1 32 5 34 10 6 17 172 5 283
-21 74 -16 137 -50 250 -132 102 -75 147 -102 136 -84 -11 17 5 13 28 -6 21
-18 21 -18 2 5 -22 25 -15 42 9 22 9 -8 15 -8 15 -2 0 17 -112 122 -123 115
-5 -3 -7 -1 -4 4 4 6 0 13 -8 17 -8 3 -15 10 -15 16 0 6 18 -1 40 -15 21 -14
37 -19 34 -12 -8 19 -86 73 -157 108 -48 24 -71 42 -86 70 -12 20 -21 39 -21
42 0 17 36 -7 106 -71 70 -64 224 -174 232 -167 2 2 -19 40 -47 84 l-50 82 51
-43 c29 -24 71 -63 95 -88 23 -25 43 -41 43 -36 0 4 9 -2 21 -15 l20 -24 -5
70 c-4 70 -2 70 26 0 11 -27 12 -21 20 75 4 58 9 114 10 125 2 11 14 -26 27
-82 14 -57 28 -103 32 -103 13 0 21 137 14 237 -11 163 -53 465 -85 607 -5 24
-5 46 0 55 5 9 10 12 10 6 4 -38 14 -62 40 -100 17 -24 34 -47 40 -50 13 -8
183 -296 178 -301 -3 -2 -39 26 -82 62 -42 37 -79 65 -80 63 -2 -2 23 -44 56
-94 64 -97 118 -192 118 -209 0 -5 -13 3 -29 18 -31 30 -47 19 -28 -19 10 -20
9 -20 -14 0 -60 52 -59 44 5 -49 65 -94 68 -101 68 -155 -1 -31 3 -67 9 -81
14 -39 71 -282 73 -313 0 -16 6 -25 13 -23 67 26 133 29 133 6 0 -5 11 -20 24
-33 44 -44 86 -330 65 -444 -12 -66 -32 -91 -144 -182 -76 -62 -342 -249 -390
-274 -29 -15 -185 -37 -264 -37 -30 0 -48 -7 -71 -27 l-30 -28 -1 -205 0 -205
-37 -44 c-47 -58 -213 -165 -377 -246 -305 -148 -594 -225 -804 -213 -87 5
-131 26 -131 63 0 13 -11 56 -25 97 -14 40 -25 74 -25 75 0 7 -60 32 -76 33
-10 0 -122 2 -249 3 -308 3 -288 -7 -518 257 -50 58 -146 166 -212 240 -142
160 -202 232 -237 282 -13 21 -28 35 -33 30 -5 -4 -5 -2 -1 5 4 7 0 26 -9 43
-24 46 -81 227 -94 295 -6 33 -22 124 -36 203 -14 79 -33 174 -43 211 l-18 66
99 -100 c63 -63 101 -95 104 -87 3 8 -10 32 -28 55 -55 71 -55 73 -6 34 51
-41 59 -39 26 8 -26 39 -94 172 -104 205 -5 15 10 2 37 -35 43 -57 135 -151
127 -130 -2 6 -18 37 -35 70 -54 104 -72 184 -74 335 -1 74 -3 150 -5 168 -4
49 9 88 28 84 10 -2 17 2 17 8 0 5 -12 10 -26 10 l-26 0 7 188 c5 103 7 198 7
210 -1 13 2 31 8 40 7 13 9 9 10 -20 0 -41 43 -266 65 -344 20 -69 24 -140 8
-137 -7 2 -10 -4 -6 -13 3 -9 13 -14 23 -11 12 3 20 -5 30 -31 15 -43 32 -24
24 28 l-5 35 72 29 c67 27 82 30 201 30 72 1 132 -1 134 -3 5 -5 13 -7 64 -17
19 -3 66 -17 104 -30 80 -28 79 -28 70 -12 -4 7 -3 8 5 4 6 -4 9 -11 6 -16 -7
-11 24 -22 38 -13 6 3 25 -11 44 -33 18 -21 33 -34 33 -28 0 6 -19 32 -43 58
-24 25 -41 48 -39 51 3 3 10 1 16 -4 6 -4 20 -11 31 -15 45 -16 -11 23 -90 62
-73 37 -171 72 -281 101 -51 13 -96 48 -92 70 1 9 -1 22 -6 29 -23 37 -40 311
-21 342 8 13 247 23 275 12 21 -8 28 -21 38 -71 15 -72 60 -212 72 -225 4 -4
2 23 -5 60 -7 38 -16 106 -20 150 l-7 82 33 -7 c30 -6 34 -11 55 -81 13 -41
26 -92 30 -115 4 -22 9 -34 12 -26 2 7 30 -35 61 -95 42 -80 62 -109 75 -107
11 0 15 -4 12 -13 -3 -8 -1 -14 3 -14 5 0 14 -14 20 -32 6 -17 13 -29 16 -26
3 3 -6 39 -20 82 -14 42 -25 79 -25 83 0 3 18 -22 41 -57 22 -34 42 -60 45
-57 7 7 -17 109 -75 317 -55 201 -55 200 -42 200 5 0 17 -24 27 -52 45 -139
145 -317 217 -386 l33 -32 -32 67 c-34 70 -97 252 -108 313 -6 31 0 25 41 -41
80 -127 198 -271 275 -335 81 -67 126 -99 133 -92 2 2 -15 33 -39 69 -52 77
-100 159 -93 159 2 0 24 -28 48 -62 52 -76 115 -145 143 -160 20 -10 20 -9 -1
14 -13 13 -23 28 -23 34 0 5 4 5 8 -1 8 -12 116 -94 147 -112 39 -24 39 -13
-1 30 -36 37 -99 122 -147 200 -34 54 -8 25 58 -63 40 -54 92 -109 129 -137
33 -25 56 -40 50 -32 -6 8 -25 33 -43 56 -49 62 -33 72 28 17 l53 -48 -27 54
c-15 30 -39 73 -53 95 -42 66 -121 229 -148 307 -61 172 -114 409 -120 538 -4
84 3 76 36 -37z m3010 86 c0 -5 -7 -9 -15 -9 -15 0 -20 12 -9 23 8 8 24 -1 24
-14z m-4630 1 c0 -5 -5 -10 -11 -10 -5 0 -7 5 -4 10 3 6 8 10 11 10 2 0 4 -4
4 -10z m4290 0 c0 -5 -5 -10 -11 -10 -5 0 -7 5 -4 10 3 6 8 10 11 10 2 0 4 -4
4 -10z m-4826 -21 c-3 -5 -10 -7 -15 -3 -5 3 -7 10 -3 15 3 5 10 7 15 3 5 -3
7 -10 3 -15z m4901 12 c7 -12 -12 -24 -25 -16 -11 7 -4 25 10 25 5 0 11 -4 15
-9z m-1469 -78 c-10 -10 -19 5 -10 18 6 11 8 11 12 0 2 -7 1 -15 -2 -18z
m-2892 1 c3 -8 2 -12 -4 -9 -6 3 -10 10 -10 16 0 14 7 11 14 -7z m2996 -14 c0
-5 -5 -10 -11 -10 -5 0 -7 5 -4 10 3 6 8 10 11 10 2 0 4 -4 4 -10z m-777 -14
c4 -10 1 -13 -9 -9 -7 3 -14 9 -14 14 0 14 17 10 23 -5z m777 -16 c0 -5 -5
-10 -11 -10 -5 0 -7 5 -4 10 3 6 8 10 11 10 2 0 4 -4 4 -10z m-1060 -30 c0 -5
-5 -10 -11 -10 -5 0 -7 5 -4 10 3 6 8 10 11 10 2 0 4 -4 4 -10z m1050 -11 c0
-11 -4 -18 -10 -14 -5 3 -7 12 -3 20 7 21 13 19 13 -6z m1120 -14 c0 -8 -7
-15 -15 -15 -8 0 -15 7 -15 15 0 8 7 15 15 15 8 0 15 -7 15 -15z m-1135 -33
c-8 -8 -25 10 -19 20 4 6 9 5 15 -3 4 -7 6 -15 4 -17z m255 8 c0 -5 -2 -10 -4
-10 -3 0 -8 5 -11 10 -3 6 -1 10 4 10 6 0 11 -4 11 -10z m-2385 -262 c6 -22 4
-28 -10 -28 -9 0 -25 5 -36 10 -17 10 -19 22 -19 130 0 167 10 177 36 35 12
-66 25 -132 29 -147z m2195 199 c0 -12 -23 14 -38 43 -11 21 -9 20 12 -5 14
-16 26 -34 26 -38z m220 33 c0 -5 -4 -10 -10 -10 -5 0 -10 5 -10 10 0 6 5 10
10 10 6 0 10 -4 10 -10z m-1110 -14 c0 -3 -4 -8 -10 -11 -5 -3 -10 -1 -10 4 0
6 5 11 10 11 6 0 10 -2 10 -4z m190 -26 c0 -5 -4 -10 -10 -10 -5 0 -10 5 -10
10 0 6 5 10 10 10 6 0 10 -4 10 -10z m1020 -11 c0 -5 -4 -9 -10 -9 -5 0 -10 7
-10 16 0 8 5 12 10 9 6 -3 10 -10 10 -16z m40 1 c0 -5 -2 -10 -4 -10 -3 0 -8
5 -11 10 -3 6 -1 10 4 10 6 0 11 -4 11 -10z m-234 -96 c0 -22 -2 -30 -7 -22
-11 16 -12 74 -2 64 4 -4 8 -23 9 -42z m339 36 c3 -5 1 -10 -4 -10 -6 0 -11 5
-11 10 0 6 2 10 4 10 3 0 8 -4 11 -10z m-705 -40 c0 -5 -7 -10 -15 -10 -8 0
-15 5 -15 10 0 6 7 10 15 10 8 0 15 -4 15 -10z m-3302 -18 c2 -7 -5 -12 -17
-12 -14 0 -19 5 -14 15 6 17 25 15 31 -3z m2822 8 c0 -5 -4 -10 -10 -10 -5 0
-10 5 -10 10 0 6 5 10 10 10 6 0 10 -4 10 -10z m335 0 c3 -5 -3 -10 -15 -10
-12 0 -18 5 -15 10 3 6 10 10 15 10 5 0 12 -4 15 -10z m1660 -20 c-5 -8 -11
-8 -17 -2 -6 6 -7 16 -3 22 5 8 11 8 17 2 6 -6 7 -16 3 -22z m-3298 -12 c-3
-7 -5 -2 -5 12 0 14 2 19 5 13 2 -7 2 -19 0 -25z m2003 12 c0 -5 -5 -10 -11
-10 -5 0 -7 5 -4 10 3 6 8 10 11 10 2 0 4 -4 4 -10z m-3720 -14 c0 -3 -4 -8
-10 -11 -5 -3 -10 -1 -10 4 0 6 5 11 10 11 6 0 10 -2 10 -4z m200 -6 c0 -5 -4
-10 -10 -10 -5 0 -10 5 -10 10 0 6 5 10 10 10 6 0 10 -4 10 -10z m2813 -3 c4
3 7 1 7 -6 0 -8 -6 -11 -16 -7 -9 3 -20 6 -25 6 -6 0 -7 5 -4 10 5 8 11 8 19
1 7 -6 16 -8 19 -4z m1067 3 c0 -5 -4 -10 -10 -10 -5 0 -10 5 -10 10 0 6 5 10
10 10 6 0 10 -4 10 -10z m-110 -21 c0 -6 -4 -7 -10 -4 -5 3 -10 11 -10 16 0 6
5 7 10 4 6 -3 10 -11 10 -16z m73 7 c4 -9 -2 -12 -16 -11 -32 4 -33 4 -17 15
20 13 27 12 33 -4z m-4143 -6 c0 -5 -4 -10 -10 -10 -5 0 -10 5 -10 10 0 6 5
10 10 10 6 0 10 -4 10 -10z m2715 -20 c3 -5 1 -10 -4 -10 -6 0 -11 5 -11 10 0
6 2 10 4 10 3 0 8 -4 11 -10z m1270 0 c3 -5 1 -10 -4 -10 -6 0 -11 5 -11 10 0
6 2 10 4 10 3 0 8 -4 11 -10z m-875 -9 c0 -6 -4 -13 -10 -16 -5 -3 -10 1 -10
9 0 9 5 16 10 16 6 0 10 -4 10 -9z m647 -23 c-3 -8 -6 -5 -6 6 -1 11 2 17 5
13 3 -3 4 -12 1 -19z m-3557 8 c0 -3 -4 -8 -10 -11 -5 -3 -10 -1 -10 4 0 6 5
11 10 11 6 0 10 -2 10 -4z m250 -6 c0 -5 -4 -10 -10 -10 -5 0 -10 5 -10 10 0
6 5 10 10 10 6 0 10 -4 10 -10z m4134 -11 c-3 -5 -10 -7 -15 -3 -5 3 -7 10 -3
15 3 5 10 7 15 3 5 -3 7 -10 3 -15z m-520 -5 c3 -8 2 -12 -4 -9 -6 3 -10 10
-10 16 0 14 7 11 14 -7z m281 -4 c3 -5 1 -10 -4 -10 -6 0 -11 5 -11 10 0 6 2
10 4 10 3 0 8 -4 11 -10z m-4379 -56 c-5 -13 -10 -14 -18 -6 -6 6 -8 18 -4 28
5 13 10 14 18 6 6 -6 8 -18 4 -28z m204 26 c0 -5 -4 -10 -10 -10 -5 0 -10 5
-10 10 0 6 5 10 10 10 6 0 10 -4 10 -10z m-40 -20 c0 -5 -4 -10 -10 -10 -5 0
-10 5 -10 10 0 6 5 10 10 10 6 0 10 -4 10 -10z m4100 0 c0 -5 -5 -10 -11 -10
-5 0 -7 5 -4 10 3 6 8 10 11 10 2 0 4 -4 4 -10z m615 1 c7 -12 -12 -24 -25
-16 -11 7 -4 25 10 25 5 0 11 -4 15 -9z m-485 -21 c0 -5 -2 -10 -4 -10 -3 0
-8 5 -11 10 -3 6 -1 10 4 10 6 0 11 -4 11 -10z m-4287 -100 c-3 -3 -9 3 -14
13 -6 9 -17 17 -26 17 -13 0 -13 3 -3 15 11 14 15 12 30 -12 10 -15 15 -30 13
-33z m517 40 c0 -5 -2 -10 -4 -10 -3 0 -8 5 -11 10 -3 6 -1 10 4 10 6 0 11 -4
11 -10z m4110 -20 c0 -5 -2 -10 -4 -10 -3 0 -8 5 -11 10 -3 6 -1 10 4 10 6 0
11 -4 11 -10z m-4500 -15 c0 -8 -7 -15 -15 -15 -8 0 -15 7 -15 15 0 8 7 15 15
15 8 0 15 -7 15 -15z m790 -95 c0 -19 36 -123 55 -160 13 -26 13 -26 -21 -22
-19 2 -37 8 -39 13 -3 4 -8 51 -10 104 -3 53 -7 102 -11 108 -3 7 2 3 10 -7 9
-11 16 -27 16 -36z m2410 16 c0 -3 -4 -8 -10 -11 -5 -3 -10 -1 -10 4 0 6 5 11
10 11 6 0 10 -2 10 -4z m-2790 -16 c0 -5 -4 -10 -10 -10 -5 0 -10 5 -10 10 0
6 5 10 10 10 6 0 10 -4 10 -10z m115 1 c3 -5 1 -12 -5 -16 -5 -3 -10 1 -10 9
0 18 6 21 15 7z m85 -1 c0 -5 -4 -10 -10 -10 -5 0 -10 5 -10 10 0 6 5 10 10
10 6 0 10 -4 10 -10z m2745 -10 c3 -5 1 -10 -4 -10 -6 0 -11 5 -11 10 0 6 2
10 4 10 3 0 8 -4 11 -10z m75 0 c0 -5 -2 -10 -4 -10 -3 0 -8 5 -11 10 -3 6 -1
10 4 10 6 0 11 -4 11 -10z m-3300 -20 c0 -5 -5 -10 -11 -10 -5 0 -7 5 -4 10 3
6 8 10 11 10 2 0 4 -4 4 -10z m4190 0 c0 -5 -4 -10 -10 -10 -5 0 -10 5 -10 10
0 6 5 10 10 10 6 0 10 -4 10 -10z m-1160 -4 c0 -11 -19 -15 -25 -6 -3 5 1 10
9 10 9 0 16 -2 16 -4z m1200 -6 c0 -5 -4 -10 -10 -10 -5 0 -10 5 -10 10 0 6 5
10 10 10 6 0 10 -4 10 -10z m-4838 -42 c6 -55 1 -67 -23 -61 -15 4 -19 14 -19
47 0 45 5 56 26 56 7 0 14 -18 16 -42z m4203 31 c-7 -11 -35 -12 -35 -1 0 4 9
8 20 9 11 1 18 -2 15 -8z m795 -34 c0 -8 -7 -15 -15 -15 -8 0 -15 7 -15 15 0
8 7 15 15 15 8 0 15 -7 15 -15z m-4996 -88 c3 3 6 -4 6 -16 0 -18 -3 -20 -19
-12 -10 6 -21 17 -25 26 -4 12 -2 14 13 6 10 -6 21 -7 25 -4z m393 -34 c-3
-10 -5 -4 -5 12 0 17 2 24 5 18 2 -7 2 -21 0 -30z m583 17 c0 -5 -4 -10 -10
-10 -5 0 -10 5 -10 10 0 6 5 10 10 10 6 0 10 -4 10 -10z m68 -1 c-2 -6 -8 -10
-13 -10 -5 0 -11 4 -13 10 -2 6 4 11 13 11 9 0 15 -5 13 -11z m-85 -22 c4 3 7
1 7 -5 0 -21 -16 -21 -30 1 -12 19 -11 21 2 10 8 -7 18 -10 21 -6z m317 3 c0
-5 -4 -10 -10 -10 -5 0 -10 5 -10 10 0 6 5 10 10 10 6 0 10 -4 10 -10z m-414
-19 c-8 -12 -46 -21 -46 -11 0 9 18 18 38 19 7 1 11 -3 8 -8z m164 -11 c0 -5
-8 -10 -17 -10 -15 0 -16 2 -3 10 19 12 20 12 20 0z m2670 -71 c0 -17 -28 3
-40 29 l-12 27 26 -24 c14 -14 26 -28 26 -32z m-3293 9 c-3 -8 -6 -5 -6 6 -1
11 2 17 5 13 3 -3 4 -12 1 -19z m2974 5 c13 -16 12 -17 -3 -4 -17 13 -22 21
-14 21 2 0 10 -8 17 -17z m-3127 -25 c-4 -6 -2 -13 3 -17 6 -3 7 -15 2 -26 -7
-19 -8 -19 -8 3 -1 12 -6 22 -12 22 -5 0 -7 -4 -4 -10 3 -5 1 -10 -4 -10 -6 0
-11 5 -11 11 0 5 -4 7 -10 4 -5 -3 -10 3 -10 14 0 14 5 19 15 15 8 -4 15 -1
15 5 0 6 7 8 15 5 8 -4 12 -11 9 -16z m111 -38 c-3 -5 -12 -10 -18 -10 -7 0
-6 4 3 10 19 12 23 12 15 0z m-136 -36 c-16 -20 -29 -17 -29 5 0 14 5 18 20
14 16 -4 18 -8 9 -19z m161 -58 c0 -3 -13 8 -30 25 -16 18 -27 36 -24 41 5 8
54 -52 54 -66z m-100 23 c0 -3 -7 -12 -15 -19 -18 -15 -20 1 -2 19 10 11 8 11
-11 1 -13 -6 -21 -14 -18 -17 8 -8 -27 -33 -36 -27 -18 11 -6 36 22 45 16 6
29 14 29 17 -3 22 3 25 16 8 8 -11 15 -23 15 -27z m-34 -64 c4 -8 10 -15 16
-15 5 0 6 6 2 13 -5 8 -4 9 4 2 6 -5 14 -23 18 -39 7 -29 7 -29 -32 -23 -50 8
-70 33 -47 59 20 22 32 23 39 3z m124 -80 l45 -14 -46 2 c-29 1 -46 7 -46 15
0 6 1 12 1 12 1 0 21 -7 46 -15z m-77 -45 c4 -16 2 -18 -11 -11 -10 4 -23 6
-29 4 -7 -3 -13 1 -13 9 0 22 47 21 53 -2z m4827 5 c0 -8 -4 -15 -9 -15 -13 0
-22 16 -14 24 11 11 23 6 23 -9z m-4705 -124 c3 -6 -4 -9 -15 -8 -11 1 -20 5
-20 9 0 11 28 10 35 -1z m233 -8 c-4 -22 -22 -20 -26 1 -2 10 3 16 13 16 10 0
15 -7 13 -17z m-368 -33 c0 -5 -4 -10 -10 -10 -5 0 -10 5 -10 10 0 6 5 10 10
10 6 0 10 -4 10 -10z m80 6 c0 -3 -4 -8 -10 -11 -5 -3 -10 -1 -10 4 0 6 5 11
10 11 6 0 10 -2 10 -4z m18 -78 c-12 -33 -12 -33 -18 -8 -6 23 -1 29 27 39 1
1 -3 -14 -9 -31z m-55 1 c-4 -15 -8 -17 -14 -8 -6 11 4 28 18 29 0 0 -1 -9 -4
-21z m23 -76 c-5 -21 -4 -24 4 -13 8 12 10 9 10 -12 0 -18 -5 -28 -15 -28 -8
0 -15 3 -16 8 0 4 -2 22 -5 40 -3 24 0 32 12 32 13 0 15 -6 10 -27z m44 5 c0
-19 -2 -20 -10 -8 -13 19 -13 30 0 30 6 0 10 -10 10 -22z m94 -299 c-3 -5 -10
-7 -15 -3 -5 3 -7 10 -3 15 3 5 10 7 15 3 5 -3 7 -10 3 -15z m116 -59 c-19
-13 -30 -13 -30 0 0 6 10 10 23 10 18 0 19 -2 7 -10z m35 -30 c3 -5 1 -10 -4
-10 -6 0 -11 5 -11 10 0 6 2 10 4 10 3 0 8 -4 11 -10z m4525 -74 c0 -3 -4 -8
-10 -11 -5 -3 -10 -1 -10 4 0 6 5 11 10 11 6 0 10 -2 10 -4z m-4690 -16 c0 -5
-4 -10 -10 -10 -5 0 -10 5 -10 10 0 6 5 10 10 10 6 0 10 -4 10 -10z m-50 -20
c0 -5 -4 -10 -10 -10 -5 0 -10 5 -10 10 0 6 5 10 10 10 6 0 10 -4 10 -10z
m140 -10 c0 -5 -4 -10 -10 -10 -5 0 -10 5 -10 10 0 6 5 10 10 10 6 0 10 -4 10
-10z m4720 -30 c0 -5 -4 -10 -10 -10 -5 0 -10 5 -10 10 0 6 5 10 10 10 6 0 10
-4 10 -10z m-4810 -10 c0 -5 -5 -10 -11 -10 -5 0 -7 5 -4 10 3 6 8 10 11 10 2
0 4 -4 4 -10z m180 0 c0 -5 -5 -10 -11 -10 -5 0 -7 5 -4 10 3 6 8 10 11 10 2
0 4 -4 4 -10z m-220 -30 c0 -5 -4 -10 -10 -10 -5 0 -10 5 -10 10 0 6 5 10 10
10 6 0 10 -4 10 -10z m-80 -20 c0 -5 -4 -10 -10 -10 -5 0 -10 5 -10 10 0 6 5
10 10 10 6 0 10 -4 10 -10z m4870 -10 c0 -5 -4 -10 -10 -10 -5 0 -10 5 -10 10
0 6 5 10 10 10 6 0 10 -4 10 -10z m-4542 -14 c-7 -8 -15 -12 -17 -11 -5 6 10
25 20 25 5 0 4 -6 -3 -14z m-198 -16 c0 -5 -4 -10 -10 -10 -5 0 -10 5 -10 10
0 6 5 10 10 10 6 0 10 -4 10 -10z m-100 -76 c0 -8 -5 -12 -10 -9 -6 4 -8 11
-5 16 9 14 15 11 15 -7z m670 -84 c0 -5 -4 -10 -10 -10 -5 0 -10 5 -10 10 0 6
5 10 10 10 6 0 10 -4 10 -10z m3630 -5 c-6 -8 -9 -19 -5 -25 3 -5 2 -10 -4
-10 -20 0 -23 22 -5 35 25 19 29 19 14 0z m-4296 -32 c-13 -10 -20 -10 -23 -2
-4 14 19 30 33 22 5 -3 1 -12 -10 -20z m296 7 c0 -5 -4 -10 -10 -10 -5 0 -10
5 -10 10 0 6 5 10 10 10 6 0 10 -4 10 -10z m4525 -8 c-3 -3 -11 0 -18 7 -9 10
-8 11 6 5 10 -3 15 -9 12 -12z m-100 -31 c-6 -5 -25 10 -25 20 0 5 6 4 14 -3
8 -7 12 -15 11 -17z m-4835 15 c0 -3 -4 -8 -10 -11 -5 -3 -10 -1 -10 4 0 6 5
11 10 11 6 0 10 -2 10 -4z m314 -37 c-3 -5 -10 -7 -15 -3 -5 3 -7 10 -3 15 3
5 10 7 15 3 5 -3 7 -10 3 -15z m-129 -59 c3 -5 -1 -10 -10 -10 -9 0 -13 5 -10
10 3 6 8 10 10 10 2 0 7 -4 10 -10z m-94 -13 c-1 -12 -15 -9 -19 4 -3 6 1 10
8 8 6 -3 11 -8 11 -12z m369 -1 c0 -3 -4 -8 -10 -11 -5 -3 -10 -1 -10 4 0 6 5
11 10 11 6 0 10 -2 10 -4z m-500 -36 c0 -5 -2 -10 -4 -10 -3 0 -8 5 -11 10 -3
6 -1 10 4 10 6 0 11 -4 11 -10z m455 -10 c3 -5 1 -10 -4 -10 -6 0 -11 5 -11
10 0 6 2 10 4 10 3 0 8 -4 11 -10z m-265 -20 c0 -5 -4 -10 -10 -10 -5 0 -10 5
-10 10 0 6 5 10 10 10 6 0 10 -4 10 -10z m4650 0 c0 -5 -4 -10 -10 -10 -5 0
-10 5 -10 10 0 6 5 10 10 10 6 0 10 -4 10 -10z m-80 -39 c0 -37 -13 -47 -85
-66 -66 -17 -95 -19 -95 -7 0 9 158 102 173 102 4 0 7 -13 7 -29z m-4330 -11
c0 -5 -4 -10 -10 -10 -5 0 -10 5 -10 10 0 6 5 10 10 10 6 0 10 -4 10 -10z
m280 -10 c0 -5 -4 -10 -10 -10 -5 0 -10 5 -10 10 0 6 5 10 10 10 6 0 10 -4 10
-10z m-580 -50 c0 -5 -4 -10 -10 -10 -5 0 -10 5 -10 10 0 6 5 10 10 10 6 0 10
-4 10 -10z m4605 -37 c-14 -75 -76 -251 -116 -328 -79 -153 -158 -234 -374
-380 -129 -87 -208 -127 -295 -152 l-62 -17 -34 37 c-28 30 -33 42 -28 69 25
150 91 334 144 403 88 113 249 237 410 313 79 38 260 87 334 91 27 1 28 0 21
-36z m-4695 7 c0 -5 -5 -10 -11 -10 -5 0 -7 5 -4 10 3 6 8 10 11 10 2 0 4 -4
4 -10z m430 -15 c0 -8 -4 -15 -10 -15 -5 0 -10 7 -10 15 0 8 5 15 10 15 6 0
10 -7 10 -15z m-300 -20 c0 -8 -7 -15 -15 -15 -16 0 -20 12 -8 23 11 12 23 8
23 -8z m-170 -15 c0 -5 -4 -10 -10 -10 -5 0 -10 5 -10 10 0 6 5 10 10 10 6 0
10 -4 10 -10z m620 -10 c0 -5 -5 -10 -11 -10 -5 0 -7 5 -4 10 3 6 8 10 11 10
2 0 4 -4 4 -10z m-313 -36 c-9 -9 -28 6 -21 18 4 6 10 6 17 -1 6 -6 8 -13 4
-17z m4483 16 c0 -5 -4 -10 -10 -10 -5 0 -10 5 -10 10 0 6 5 10 10 10 6 0 10
-4 10 -10z m-4350 -20 c0 -5 -4 -10 -10 -10 -5 0 -10 5 -10 10 0 6 5 10 10 10
6 0 10 -4 10 -10z m80 -40 c0 -5 -4 -10 -10 -10 -5 0 -10 5 -10 10 0 6 5 10
10 10 6 0 10 -4 10 -10z m-200 -40 c0 -5 -4 -10 -10 -10 -5 0 -10 5 -10 10 0
6 5 10 10 10 6 0 10 -4 10 -10z m-20 -120 c0 -5 -2 -10 -4 -10 -3 0 -8 5 -11
10 -3 6 -1 10 4 10 6 0 11 -4 11 -10z m30 -20 c0 -5 -2 -10 -4 -10 -3 0 -8 5
-11 10 -3 6 -1 10 4 10 6 0 11 -4 11 -10z m270 -50 c0 -5 -5 -10 -11 -10 -5 0
-7 5 -4 10 3 6 8 10 11 10 2 0 4 -4 4 -10z m-265 -160 c3 -5 1 -10 -4 -10 -6
0 -11 5 -11 10 0 6 2 10 4 10 3 0 8 -4 11 -10z m655 -174 c0 -3 -4 -8 -10 -11
-5 -3 -10 -1 -10 4 0 6 5 11 10 11 6 0 10 -2 10 -4z m3410 0 c0 -3 -4 -8 -10
-11 -5 -3 -10 -1 -10 4 0 6 5 11 10 11 6 0 10 -2 10 -4z m-3135 -56 c3 -5 1
-10 -4 -10 -6 0 -11 5 -11 10 0 6 2 10 4 10 3 0 8 -4 11 -10z m-110 -20 c3 -5
-1 -10 -9 -10 -9 0 -16 5 -16 10 0 6 4 10 9 10 6 0 13 -4 16 -10z m-295 -24
c0 -3 -4 -8 -10 -11 -5 -3 -10 -1 -10 4 0 6 5 11 10 11 6 0 10 -2 10 -4z
m4000 -126 c0 -5 -4 -10 -10 -10 -5 0 -10 5 -10 10 0 6 5 10 10 10 6 0 10 -4
10 -10z m-5232 -76 c7 -27 22 -81 33 -120 12 -39 20 -85 17 -103 -3 -23 0 -32
12 -36 9 -3 22 -18 29 -33 7 -15 20 -38 29 -52 24 -38 22 -60 -13 -115 -18
-27 -51 -87 -74 -133 -23 -46 -49 -86 -58 -89 -27 -10 -43 25 -43 96 -1 42 -6
73 -15 85 -20 26 -20 209 0 336 20 129 45 222 59 217 6 -2 17 -26 24 -53z
m5012 16 c0 -5 -5 -10 -11 -10 -5 0 -7 5 -4 10 3 6 8 10 11 10 2 0 4 -4 4 -10z
m-3965 -50 c3 -5 1 -10 -4 -10 -6 0 -11 5 -11 10 0 6 2 10 4 10 3 0 8 -4 11
-10z m515 -120 c0 -5 -2 -10 -4 -10 -3 0 -8 5 -11 10 -3 6 -1 10 4 10 6 0 11
-4 11 -10z m3090 -260 c0 -5 -5 -10 -11 -10 -5 0 -7 5 -4 10 3 6 8 10 11 10 2
0 4 -4 4 -10z m-4100 -35 c0 -8 -4 -15 -9 -15 -13 0 -22 16 -14 24 11 11 23 6
23 -9z m-230 -95 c0 -5 -4 -10 -10 -10 -5 0 -10 5 -10 10 0 6 5 10 10 10 6 0
10 -4 10 -10z m4240 -64 c0 -3 -4 -8 -10 -11 -5 -3 -10 -1 -10 4 0 6 5 11 10
11 6 0 10 -2 10 -4z m-4275 -16 c3 -5 1 -10 -4 -10 -6 0 -11 5 -11 10 0 6 2
10 4 10 3 0 8 -4 11 -10z m129 -105 c3 -8 1 -15 -4 -15 -6 0 -10 7 -10 15 0 8
2 15 4 15 2 0 6 -7 10 -15z m816 -95 c0 -5 -7 -10 -15 -10 -8 0 -15 5 -15 10
0 6 7 10 15 10 8 0 15 -4 15 -10z m3190 -274 c0 -3 -4 -8 -10 -11 -5 -3 -10
-1 -10 4 0 6 5 11 10 11 6 0 10 -2 10 -4z m-3748 -51 c0 -5 -5 -11 -11 -13 -6
-2 -11 4 -11 13 0 9 5 15 11 13 6 -2 11 -8 11 -13z m-452 -325 c0 -5 -4 -10
-10 -10 -5 0 -10 5 -10 10 0 6 5 10 10 10 6 0 10 -4 10 -10z m250 -30 c0 -5
-4 -10 -10 -10 -5 0 -10 5 -10 10 0 6 5 10 10 10 6 0 10 -4 10 -10z m1220
-110 c0 -5 -5 -10 -11 -10 -5 0 -7 5 -4 10 3 6 8 10 11 10 2 0 4 -4 4 -10z"/>
<path d="M1732 6676 c6 -14 15 -26 20 -26 10 0 -7 36 -22 45 -6 4 -5 -5 2 -19z"/>
<path d="M2010 6520 c19 -13 30 -13 30 0 0 6 -10 10 -22 10 -19 0 -20 -2 -8
-10z"/>
<path d="M1955 6510 c-3 -5 -2 -10 4 -10 5 0 13 5 16 10 3 6 2 10 -4 10 -5 0
-13 -4 -16 -10z"/>
<path d="M2050 6486 c0 -8 6 -16 13 -19 8 -3 14 1 14 9 0 7 -6 15 -14 18 -7 3
-13 -1 -13 -8z"/>
<path d="M1608 6513 c7 -3 16 -2 19 1 4 3 -2 6 -13 5 -11 0 -14 -3 -6 -6z"/>
<path d="M2615 4370 c3 -5 8 -10 11 -10 2 0 4 5 4 10 0 6 -5 10 -11 10 -5 0
-7 -4 -4 -10z"/>
<path d="M5218 3753 c7 -3 16 -2 19 1 4 3 -2 6 -13 5 -11 0 -14 -3 -6 -6z"/>
<path d="M5170 3735 c-14 -8 -20 -14 -14 -15 5 0 19 7 30 15 24 18 16 19 -16
0z"/>
<path d="M5110 3710 c-8 -5 -10 -10 -5 -10 6 0 17 5 25 10 8 5 11 10 5 10 -5
0 -17 -5 -25 -10z"/>
<path d="M5044 3666 c-19 -19 -34 -40 -34 -47 0 -8 5 -5 11 6 6 11 25 32 42
48 17 15 28 27 23 27 -4 0 -23 -15 -42 -34z"/>
<path d="M5201 3557 c-13 -21 -12 -21 5 -5 10 10 16 20 13 22 -3 3 -11 -5 -18
-17z"/>
<path d="M2693 3504 c9 -3 15 -9 13 -13 -3 -4 41 -8 97 -8 211 -2 251 -5 270
-21 16 -15 17 -14 11 1 -3 10 -1 17 5 17 10 0 15 -14 12 -33 -1 -4 7 -3 18 2
10 6 21 7 25 3 4 -3 4 1 0 11 -4 13 -1 17 15 17 30 0 26 -28 -8 -67 -33 -38
-38 -40 -44 -15 -3 12 -5 10 -6 -7 -1 -16 -5 -21 -16 -17 -8 3 -15 2 -15 -3 0
-5 -20 -14 -44 -20 -25 -6 -47 -15 -50 -20 -3 -4 25 1 62 12 37 11 76 20 88
21 11 1 24 5 30 8 18 11 220 9 309 -3 92 -12 211 -57 248 -93 28 -28 31 -12 8
37 -12 25 -33 49 -47 56 -64 29 -248 82 -312 90 -39 5 -75 12 -80 15 -6 3
-113 11 -239 16 -125 5 -259 12 -298 14 -38 3 -62 3 -52 0z m527 -88 c0 -3 -4
-8 -10 -11 -5 -3 -10 -1 -10 4 0 6 5 11 10 11 6 0 10 -2 10 -4z m193 -13 c-7
-2 -19 -2 -25 0 -7 3 -2 5 12 5 14 0 19 -2 13 -5z"/>
<path d="M2490 3492 c0 -4 21 -6 48 -4 75 5 82 10 15 11 -35 0 -63 -2 -63 -7z"/>
<path d="M2433 3454 c-6 -17 2 -178 12 -231 7 -38 91 -203 111 -219 7 -6 10
-15 6 -19 -4 -5 -2 -5 5 -1 12 6 56 -46 48 -58 -3 -3 -2 -4 2 -1 3 3 12 0 20
-6 10 -9 13 -3 13 30 0 67 44 146 127 228 40 41 65 69 55 64 -9 -5 -43 -36
-74 -68 -63 -64 -118 -159 -118 -204 0 -16 -3 -29 -7 -29 -10 0 -77 92 -125
171 -44 72 -75 217 -64 305 6 53 1 70 -11 38z"/>
<path d="M2970 3434 c0 -8 5 -12 10 -9 6 4 8 11 5 16 -9 14 -15 11 -15 -7z"/>
<path d="M2996 3435 c-3 -8 -1 -17 3 -20 5 -3 11 2 15 10 3 8 1 17 -3 20 -5 3
-11 -2 -15 -10z"/>
<path d="M4879 3423 l-24 -28 28 24 c25 23 32 31 24 31 -2 0 -14 -12 -28 -27z"/>
<path d="M4817 3351 c-43 -48 -60 -78 -53 -96 2 -7 25 -23 50 -36 43 -21 46
-25 46 -61 0 -22 5 -48 10 -59 10 -17 8 -18 -13 -10 -14 6 -29 6 -38 0 -11 -7
-10 -9 6 -10 26 -3 32 -4 78 -13 23 -4 44 -3 55 4 14 10 13 11 -10 7 -36 -5
-68 29 -75 82 -5 36 -12 45 -55 71 -48 30 -49 32 -34 53 9 12 19 29 22 38 3 8
22 22 42 29 26 10 32 15 19 18 -9 2 -15 8 -12 13 13 21 -5 7 -38 -30z"/>
<path d="M4945 3333 c19 -59 26 -71 20 -38 -3 17 -8 38 -11 47 -4 14 -1 16 13
12 15 -5 16 -4 3 5 -30 22 -38 13 -25 -26z"/>
<path d="M5198 3363 c7 -3 16 -2 19 1 4 3 -2 6 -13 5 -11 0 -14 -3 -6 -6z"/>
<path d="M4946 3243 c-6 -14 -5 -15 5 -6 7 7 10 15 7 18 -3 3 -9 -2 -12 -12z"/>
<path d="M3721 3198 c1 -37 2 -39 9 -18 12 36 12 60 0 60 -5 0 -10 -19 -9 -42z"/>
<path d="M3675 3079 c-21 -38 -62 -92 -89 -120 -33 -34 -41 -45 -23 -34 39 25
116 120 139 173 30 68 17 58 -27 -19z"/>
<path d="M5055 3120 c-3 -6 1 -7 9 -4 18 7 21 14 7 14 -6 0 -13 -4 -16 -10z"/>
<path d="M4698 3113 c6 -2 18 -2 25 0 6 3 1 5 -13 5 -14 0 -19 -2 -12 -5z"/>
<path d="M4658 3103 c7 -3 16 -2 19 1 4 3 -2 6 -13 5 -11 0 -14 -3 -6 -6z"/>
<path d="M5000 3095 c-14 -8 -20 -14 -15 -14 6 0 21 6 35 14 14 8 21 14 15 14
-5 0 -21 -6 -35 -14z"/>
<path d="M4590 3085 c-22 -13 -23 -14 -5 -14 11 0 29 6 39 14 26 20 0 20 -34
0z"/>
<path d="M4472 2878 c-23 -11 -40 -23 -38 -26 3 -2 -11 -17 -32 -32 -64 -47
-70 -65 -7 -25 130 83 160 105 140 105 -11 -1 -39 -10 -63 -22z"/>
<path d="M3413 2835 c-29 -13 -53 -26 -53 -29 0 -7 92 33 105 45 13 13 7 11
-52 -16z"/>
<path d="M1024 6029 c-3 -6 -1 -16 5 -22 8 -8 11 -5 11 11 0 24 -5 28 -16 11z"/>
<path d="M650 4455 c0 -8 -6 -12 -13 -9 -7 2 -21 -4 -31 -15 -23 -26 -5 -36
39 -21 37 12 48 43 20 54 -9 3 -15 0 -15 -9z"/>
<path d="M620 4355 c0 -8 -4 -15 -10 -15 -5 0 -7 -6 -4 -14 4 -9 -6 -16 -31
-20 -33 -7 -36 -10 -31 -34 3 -15 10 -67 16 -117 11 -104 55 -209 91 -218 12
-3 19 -11 16 -19 -5 -15 32 -88 46 -88 5 0 6 8 2 18 -5 9 -19 53 -32 97 -13
43 -27 82 -31 85 -4 3 -5 70 -2 150 4 80 3 155 -1 168 -10 25 -29 30 -29 7z"/>
<path d="M5068 1643 c6 -2 18 -2 25 0 6 3 1 5 -13 5 -14 0 -19 -2 -12 -5z"/>
<path d="M6500 1562 c48 -60 133 -222 160 -305 6 -21 14 -36 17 -33 7 6 -50
150 -88 226 -16 30 -53 82 -84 115 l-56 60 51 -63z"/>
<path d="M146 1175 c-13 -36 -6 -164 14 -229 31 -98 44 -96 36 5 -7 79 -32
229 -40 236 -2 2 -6 -3 -10 -12z"/>
<path d="M2540 1101 c0 -14 18 -31 61 -56 81 -48 89 -44 11 5 -35 22 -61 44
-57 49 3 5 1 12 -5 16 -5 3 -10 -3 -10 -14z"/>
<path d="M2680 1006 c0 -2 7 -7 16 -10 8 -3 12 -2 9 4 -6 10 -25 14 -25 6z"/>
<path d="M2730 980 c8 -5 20 -10 25 -10 6 0 3 5 -5 10 -8 5 -19 10 -25 10 -5
0 -3 -5 5 -10z"/>
<path d="M6712 950 c0 -14 2 -19 5 -12 2 6 2 18 0 25 -3 6 -5 1 -5 -13z"/>
<path d="M6714 805 c0 -55 1 -76 3 -47 2 29 2 74 0 100 -2 26 -3 2 -3 -53z"/>
<path d="M6703 635 c0 -22 2 -30 4 -17 2 12 2 30 0 40 -3 9 -5 -1 -4 -23z"/>
<path d="M6692 570 c0 -14 2 -19 5 -12 2 6 2 18 0 25 -3 6 -5 1 -5 -13z"/>
<path d="M6672 484 c-6 -32 -10 -59 -8 -61 6 -6 28 95 24 108 -2 6 -9 -15 -16
-47z"/>
<path d="M6646 374 c-4 -14 -5 -28 -3 -31 3 -2 8 8 11 23 4 14 5 28 3 31 -3 2
-8 -8 -11 -23z"/>
<path d="M6622 293 c-15 -48 -8 -55 8 -8 7 20 10 38 8 41 -3 2 -10 -13 -16
-33z"/>
<path d="M6596 215 c-9 -26 -7 -32 5 -12 6 10 9 21 6 23 -2 3 -7 -2 -11 -11z"/>
<path d="M6557 103 c-15 -42 -26 -78 -24 -80 3 -2 16 31 31 73 15 42 26 78 23
80 -2 2 -16 -31 -30 -73z"/>
</g>
</svg>
